<svg width="137" height="24" viewBox="0 0 137 24" fill="none" xmlns="http://www.w3.org/2000/svg">
<g clip-path="url(#clip0_27_255)">
<path d="M25.1146 17.6043C26.5909 17.6043 27.7877 16.4074 27.7877 14.931C27.7877 13.4547 26.5909 12.2578 25.1146 12.2578C23.6382 12.2578 22.4414 13.4547 22.4414 14.931C22.4414 16.4074 23.6382 17.6043 25.1146 17.6043Z" fill="#EE2C3C"/>
<path d="M69.6144 6.1875C64.6947 6.1875 60.707 10.1753 60.707 15.0951C60.707 20.015 64.6947 24.0027 69.6144 24.0027C74.5342 24.0027 78.5219 20.015 78.5219 15.0951C78.5219 10.1753 74.5331 6.1875 69.6144 6.1875ZM69.6144 19.7439C67.0474 19.7439 64.9658 17.6622 64.9658 15.0951C64.9658 12.528 67.0474 10.4464 69.6144 10.4464C72.1815 10.4464 74.2631 12.528 74.2631 15.0951C74.2631 17.6622 72.1815 19.7439 69.6144 19.7439Z" fill="#EE2C3C"/>
<path d="M109.743 6.1875C104.824 6.1875 100.836 10.1753 100.836 15.0951C100.836 20.015 104.824 24.0027 109.743 24.0027C114.663 24.0027 118.651 20.015 118.651 15.0951C118.651 10.1753 114.663 6.1875 109.743 6.1875ZM109.743 19.7439C107.176 19.7439 105.095 17.6622 105.095 15.0951C105.095 12.528 107.176 10.4464 109.743 10.4464C112.31 10.4464 114.392 12.528 114.392 15.0951C114.392 17.6622 112.311 19.7439 109.743 19.7439Z" fill="#EE2C3C"/>
<path d="M12.2476 18.7392C11.3985 19.4348 10.3141 19.853 9.13097 19.853C6.84974 19.853 4.93103 18.301 4.37307 16.1952H13.8889C13.8878 16.1983 13.8868 16.2004 13.8868 16.2036H17.947C18.0069 15.7875 18.0394 15.3629 18.0394 14.9311C18.0394 10.0112 14.0517 6.02344 9.13202 6.02344C4.2123 6.02344 0.224609 10.0112 0.224609 14.9311C0.224609 19.8509 4.2123 23.8387 9.13202 23.8387C12.6889 23.8387 15.7572 21.7539 17.1852 18.7402L12.2476 18.7392ZM9.13097 10.0081C11.2115 10.0081 12.9894 11.2995 13.7102 13.1247H4.55275C5.27253 11.2995 7.05044 10.0081 9.13097 10.0081Z" fill="#EE2C3C"/>
<path d="M95.3757 5.35697C96.855 5.35697 98.0541 4.15777 98.0541 2.67849C98.0541 1.1992 96.855 0 95.3757 0C93.8964 0 92.6973 1.1992 92.6973 2.67849C92.6973 4.15777 93.8964 5.35697 95.3757 5.35697Z" fill="#EE2C3C"/>
<path d="M97.5053 6.70312H93.2539V23.435H97.5053V6.70312Z" fill="#EE2C3C"/>
<path d="M90.2303 6.72132H87.2577V2.10938H82.9726V6.72132H80V10.9445H82.9726V23.4416H87.2577V10.9445H90.2303V6.72132Z" fill="#EE2C3C"/>
<path d="M136.775 14.3121C136.728 10.1079 133.306 6.71484 129.092 6.71484C127.87 6.71484 126.716 7.00171 125.69 7.50925V6.75688H121.406V14.3121V14.9205V23.4341H125.69V14.9205V14.4077C125.69 14.4056 125.69 14.4025 125.69 14.4004C125.69 12.5216 127.213 10.9989 129.092 10.9989C130.97 10.9989 132.493 12.5216 132.493 14.4004C132.493 14.4025 132.493 14.4056 132.493 14.4077V23.4352H136.777V14.3121H136.775Z" fill="#EE2C3C"/>
<path d="M57.6391 14.0011C57.6328 9.97547 54.368 6.71484 50.3414 6.71484C48.3282 6.71484 46.5061 7.53026 45.1853 8.84796C43.8645 7.53026 42.0424 6.71484 40.0291 6.71484C38.9542 6.71484 37.9339 6.94917 37.0145 7.36634V6.71484H32.7305V14.0011V14.0126V15.0603V23.4467H37.0145V15.0603V14.0126C37.0145 12.3482 38.3637 10.9979 40.0291 10.9979C41.6936 10.9979 43.0438 12.3471 43.0438 14.0126V23.4467H47.3278V14.0126C47.3278 12.3482 48.677 10.9989 50.3425 10.9989C52.0069 10.9989 53.3572 12.3482 53.3572 14.0137V23.4478H57.6412L57.6391 14.0011Z" fill="#EE2C3C"/>
</g>
<defs>
<clipPath id="clip0_27_255">
<rect width="137" height="24" fill="white"/>
</clipPath>
</defs>
</svg>
